<?xml version="1.0" encoding="utf-8"?>
<!-- Generator: Adobe Illustrator 24.1.0, SVG Export Plug-In . SVG Version: 6.00 Build 0)  -->
<svg version="1.1" id="Layer_1" xmlns="http://www.w3.org/2000/svg" xmlns:xlink="http://www.w3.org/1999/xlink" x="0px" y="0px"
	 viewBox="0 0 612 255.77" style="enable-background:new 0 0 612 255.77;" xml:space="preserve">
<style type="text/css">
	.st0{fill:#FFFFFF;}
</style>
<g>
	<path class="st0" d="M105.38,135.14l-62.08-0.08l-0.05,40.77c-0.01,5.33-1.7,9.64-5.08,12.92c-3.38,3.28-7.73,4.92-13.06,4.91
		s-9.64-1.66-12.92-4.95c-3.29-3.29-4.92-7.61-4.91-12.95l0.15-115C7.45,44.39,12.97,30.7,24,19.69C35.03,8.68,48.71,3.18,65.05,3.2
		C81.21,3.22,94.8,8.81,105.8,19.96c11,11.16,16.49,24.84,16.47,41.06l0,1.87c-0.01,5.35-1.66,9.71-4.95,13.1
		c-3.29,3.38-7.6,5.07-12.93,5.06c-5.15-0.01-9.46-1.75-12.92-5.25c-3.46-3.49-5.19-7.83-5.18-13.01l0-1.88
		c0.01-6.08-2.03-11.22-6.11-15.42c-4.08-4.21-9.14-6.31-15.18-6.32c-6.04-0.01-11.15,2.08-15.33,6.27
		c-4.18,4.19-6.27,9.31-6.28,15.38l-0.05,38.27l62.08,0.08c5.33,0.01,9.63,1.7,12.92,5.08c3.28,3.38,4.92,7.73,4.91,13.06
		c-0.01,5.33-1.66,9.64-4.95,12.92C115.02,133.51,110.71,135.15,105.38,135.14z"/>
	<path class="st0" d="M170.69,7.73c4.34,4.36,6.52,9.56,6.51,15.6c-0.01,6.04-2.19,11.23-6.55,15.58
		c-4.36,4.35-9.56,6.52-15.59,6.51c-6.04-0.01-11.23-2.19-15.58-6.55c-4.35-4.36-6.52-9.55-6.51-15.6
		c0.01-6.04,2.19-11.23,6.55-15.58c4.36-4.35,9.55-6.52,15.6-6.51C161.15,1.19,166.34,3.38,170.69,7.73z M173.13,75.85
		c0.02-11.92-6.02-17.89-18.09-17.91c-5.33-0.01-9.64,1.64-12.93,4.93c-3.29,3.29-4.94,7.6-4.95,12.94l-0.13,100.11
		c-0.01,5.34,1.63,9.66,4.91,12.95c3.28,3.29,7.59,4.95,12.92,4.95c5.33,0.01,9.68-1.64,13.06-4.92c3.38-3.29,5.07-7.6,5.08-12.94
		L173.13,75.85z"/>
	<path class="st0" d="M325.3,252.66l-1.07,0c-16.35-0.02-30.01-5.56-41.01-16.6c-11-11.05-16.49-24.75-16.47-41.12l0.02-12.54
		l0.09-66.99c0.01-5.87-2.09-10.9-6.28-15.09c-4.2-4.19-9.24-6.29-15.14-6.29c-6.08-0.01-11.22,2.03-15.42,6.12
		c-4.21,4.09-6.31,9.17-6.32,15.22l-0.08,60.64c-0.01,5.35-1.7,9.66-5.08,12.95c-3.38,3.29-7.73,4.93-13.06,4.92
		s-9.64-1.66-12.92-4.95c-3.29-3.3-4.92-7.62-4.91-12.95l0.08-60.6c0.02-16.19,5.59-29.8,16.71-40.82
		c11.11-11.02,24.75-16.52,40.92-16.5c16.16,0.02,29.79,5.56,40.88,16.6c11.08,11.05,16.62,24.66,16.6,40.85l-0.1,79.53
		c-0.01,6.05,2.07,11.17,6.24,15.36c4.17,4.18,9.27,6.28,15.31,6.29l1.07,0c5.33,0.01,9.68,1.7,13.05,5.08
		c3.37,3.38,5.05,7.73,5.05,13.06c-0.01,5.33-1.7,9.63-5.08,12.92C334.98,251.03,330.63,252.67,325.3,252.66z"/>
	<path class="st0" d="M385.19,94.21c-8.88-0.01-16.44,3.12-22.66,9.39c-6.23,6.27-9.34,13.83-9.35,22.67
		c-0.01,8.85,3.08,16.37,9.3,22.57c6.21,6.2,13.75,9.3,22.63,9.31c8.88,0.01,16.48-3.09,22.79-9.31c6.31-6.22,9.48-13.78,9.49-22.67
		l0.14-104.63c0.01-5.16,1.7-9.43,5.08-12.8c3.38-3.38,7.64-5.06,12.8-5.05c5.33,0.01,9.68,1.66,13.05,4.95
		c3.37,3.29,5.05,7.61,5.04,12.95l-0.14,104.59c-0.02,19.03-6.67,35.12-19.91,48.27c-13.25,13.15-29.38,19.7-48.38,19.68
		c-19.01-0.02-35.07-6.6-48.2-19.74c-13.13-13.14-19.68-29.19-19.65-48.16c0.03-19.15,6.57-35.27,19.65-48.37
		c13.07-13.1,29.2-19.64,48.38-19.62c5.33,0.01,9.68,1.7,13.05,5.08c3.37,3.38,5.05,7.73,5.05,13.06c-0.01,5.33-1.7,9.64-5.08,12.92
		C394.87,92.58,390.52,94.21,385.19,94.21z"/>
	<path class="st0" d="M535.77,58.44c19.18,0.02,35.34,6.59,48.47,19.68c13.12,13.1,19.68,29.26,19.65,48.48
		c-0.03,19.22-6.62,35.41-19.78,48.56c-13.17,13.16-29.33,19.72-48.52,19.69s-35.29-6.63-48.33-19.82
		c-13.04-13.19-19.54-29.39-19.52-48.61c0.03-19.22,6.57-35.37,19.65-48.43C500.46,64.93,516.59,58.41,535.77,58.44z M535.73,94.4
		c-8.88-0.01-16.44,3.1-22.66,9.34c-6.23,6.24-9.34,13.81-9.35,22.73c-0.01,8.92,3.08,16.55,9.29,22.89
		c6.21,6.34,13.75,9.51,22.64,9.53c8.88,0.01,16.48-3.14,22.79-9.47c6.31-6.32,9.48-13.95,9.49-22.86
		c0.01-8.92-3.13-16.5-9.43-22.75C552.2,97.55,544.61,94.42,535.73,94.4z"/>
</g>
</svg>
