<?xml version="1.0" encoding="utf-8"?>
<!-- Generator: Adobe Illustrator 24.1.0, SVG Export Plug-In . SVG Version: 6.00 Build 0)  -->
<svg version="1.1" id="Layer_1" xmlns="http://www.w3.org/2000/svg" xmlns:xlink="http://www.w3.org/1999/xlink" x="0px" y="0px"
	 viewBox="0 0 288 288" style="enable-background:new 0 0 288 288;" xml:space="preserve">
<style type="text/css">
	.st0{fill:#919395;}
	.st1{fill:none;stroke:#FFFFFF;stroke-width:3.9642;stroke-miterlimit:10;}
	.st2{fill:#BABCBE;}
	.st3{fill:none;stroke:#221F1F;stroke-width:16.9082;stroke-miterlimit:10;}
	.st4{fill:#FFFFFF;}
	.st5{fill:none;stroke:#BABCBE;stroke-width:2;stroke-miterlimit:10;}
	.st6{fill:none;}
	.st7{fill:none;stroke:#BABCBE;stroke-width:1.7421;stroke-miterlimit:10;}
</style>
<circle class="st0" cx="144" cy="144" r="135.9"/>
<circle class="st1" cx="144" cy="144" r="126.5"/>
<circle class="st2" cx="144" cy="144" r="116.3"/>
<path class="st3" d="M72.1,101.6"/>
<path class="st4" d="M144.6,49.1c-33.6,0-65,18-81.9,47l18.8,11c11.1-19,30.3-31.9,51.7-35.3v144.5c-21.1-3.3-39.6-15.5-51-34.2
	l-18.6,11.4c17.4,28.5,47.7,45.4,81,45.4c3.9,0,7.8-0.2,11.6-0.7c0-12.4,0-14.3,0-22V71.8c21,3.3,39.5,15.5,50.9,34.1l18.6-11.4
	C208.2,66.1,177.9,49.1,144.6,49.1z"/>
<path class="st5" d="M144.6,49.1c-33.6,0-65,18-81.9,47l18.8,11c11.1-19,30.3-31.9,51.7-35.3v144.5c-21.1-3.3-39.6-15.5-51-34.1
	l-18.6,11.4c17.4,28.5,47.7,45.4,81,45.4c3.9,0,7.8-0.2,11.6-0.7c0-12.4,0-14.3,0-22V71.8c21,3.3,39.5,15.5,50.9,34.1l18.6-11.4
	C208.2,66.1,177.9,49.1,144.6,49.1z"/>
<path class="st6" d="M156.1,238.2"/>
<path class="st7" d="M72.4,100.8C87,75.8,114,59.1,145,59.1c30.4,0,57,16.1,71.7,40.2"/>
<path class="st7" d="M145,59.1v170.6v-0.9c-30.7,0-57.5-16.5-72.2-41"/>
<path class="st3" d="M72.1,101.6"/>
<path class="st6" d="M156.1,238.2"/>
</svg>
